<?xml version="1.0" encoding="iso-8859-1"?>
<!-- Generator: Adobe Illustrator 22.0.1, SVG Export Plug-In . SVG Version: 6.00 Build 0)  -->
<svg version="1.1" id="Layer_1" xmlns="http://www.w3.org/2000/svg" xmlns:xlink="http://www.w3.org/1999/xlink" x="0px" y="0px"
	 viewBox="0 0 1440 1200" style="enable-background:new 0 0 1440 1200;" xml:space="preserve" class="background-polygon">
<polygon style="" points="1505.024,-37.409 1436.115,-77.193 
	1436.115,2.376 "/>
<g>
	<polygon style="" points="1573.931,2.376 1505.024,-37.409 
		1505.024,42.161 	"/>
	<polygon style="" points="1573.931,81.946 1573.931,2.376 
		1505.024,42.161 	"/>
</g>
<polygon style="" points="1367.205,-37.409 1367.205,42.161 
	1436.115,2.376 "/>
<polygon style="" points="1436.115,-77.193 1367.205,-37.409 
	1436.115,2.376 "/>
<g>
	<polygon style="" points="1298.295,2.376 1298.295,81.946 
		1367.205,42.161 	"/>
	<polygon style="" points="1367.205,-37.409 1298.295,2.376 
		1367.205,42.161 	"/>
</g>
<polygon style="" points="1436.115,81.946 1367.205,42.161 
	1367.205,121.73 "/>
<polygon style="" points="1298.295,81.946 1298.295,161.515 
	1367.205,121.73 "/>
<polygon style="" points="1367.205,42.161 1298.295,81.946 
	1367.205,121.73 "/>
<polygon style="" points="1367.205,121.73 1298.295,161.515 
	1367.205,201.301 "/>
<polygon style="" points="1436.115,241.085 1505.024,201.301 
	1436.115,161.515 "/>
<polygon style="" points="1436.115,161.515 1367.205,201.301 
	1436.115,241.085 "/>
<g>
	<polygon style="" points="1573.931,81.946 1505.024,42.161 
		1505.024,121.73 	"/>
	<polygon style="" points="1573.931,161.515 1573.931,81.946 
		1505.024,121.73 	"/>
	<polygon style="" points="1505.024,201.301 1573.931,161.515 
		1505.024,121.73 	"/>
	<polygon style="" points="1505.024,42.161 1436.115,81.946 
		1505.024,121.73 	"/>
	<polygon style="" points="1505.024,121.73 1436.115,161.515 
		1505.024,201.301 	"/>
</g>
<polygon style="" points="1366.984,201.426 1298.075,161.642 
	1298.075,241.212 "/>
<g>
	<polygon style="" points="1435.891,241.212 1366.984,201.426 
		1366.984,280.996 	"/>
	<polygon style="" points="1435.891,320.781 1435.891,241.212 
		1366.984,280.996 	"/>
</g>
<polygon style="" points="1229.165,201.426 1229.165,280.996 
	1298.075,241.212 "/>
<polygon style="" points="1298.075,161.642 1229.165,201.426 
	1298.075,241.212 "/>
<g>
	<polygon style="" points="1160.255,241.212 1160.255,320.781 
		1229.165,280.996 	"/>
	<polygon style="" points="1229.165,201.426 1160.255,241.212 
		1229.165,280.996 	"/>
</g>
<polygon style="" points="1298.075,320.781 1229.165,280.996 
	1229.165,360.566 "/>
<polygon style="" points="1160.255,320.781 1160.255,400.35 
	1229.165,360.566 "/>
<polygon style="" points="1229.165,280.996 1160.255,320.781 
	1229.165,360.566 "/>
<polygon style="" points="1229.165,360.566 1160.255,400.35 
	1229.165,440.136 "/>
<polygon style="" points="1298.075,479.921 1366.984,440.136 
	1298.075,400.35 "/>
<polygon style="" points="1298.075,400.35 1229.165,440.136 
	1298.075,479.921 "/>
<g>
	<polygon style="" points="1435.891,320.781 1366.984,280.997 
		1366.984,360.566 	"/>
	<polygon style="" points="1435.891,400.35 1435.891,320.781 
		1366.984,360.566 	"/>
	<polygon style="" points="1366.984,440.136 1435.891,400.35 
		1366.984,360.566 	"/>
	<polygon style="" points="1366.984,280.997 1298.075,320.781 
		1366.984,360.566 	"/>
	<polygon style="" points="1366.984,360.566 1298.075,400.35 
		1366.984,440.136 	"/>
</g>
<polygon style="" points="1229.518,-37.409 1160.609,-77.193 
	1160.609,2.376 "/>
<g>
	<polygon style="" points="1298.426,2.376 1229.518,-37.409 
		1229.518,42.161 	"/>
	<polygon style="" points="1298.426,81.946 1298.426,2.376 
		1229.518,42.161 	"/>
</g>
<polygon style="" points="1091.699,-37.409 1091.699,42.161 
	1160.609,2.376 "/>
<polygon style="" points="1160.609,-77.193 1091.699,-37.409 
	1160.609,2.376 "/>
<g>
	<polygon style="" points="1022.789,2.376 1022.789,81.946 
		1091.699,42.161 	"/>
	<polygon style="" points="1091.699,-37.409 1022.789,2.376 
		1091.699,42.161 	"/>
</g>
<polygon style="" points="1160.609,81.946 1091.699,42.161 
	1091.699,121.73 "/>
<polygon style="" points="1022.789,81.946 1022.789,161.515 
	1091.699,121.73 "/>
<polygon style="" points="1091.699,42.161 1022.789,81.946 
	1091.699,121.73 "/>
<polygon style="" points="1091.699,121.73 1022.789,161.515 
	1091.699,201.301 "/>
<polygon style="" points="1160.609,241.085 1229.518,201.301 
	1160.609,161.515 "/>
<polygon style="" points="1160.609,161.515 1091.699,201.301 
	1160.609,241.085 "/>
<g>
	<polygon style="" points="1298.426,81.946 1229.518,42.161 
		1229.518,121.73 	"/>
	<polygon style="" points="1298.426,161.515 1298.426,81.946 
		1229.518,121.73 	"/>
	<polygon style="" points="1229.518,201.301 1298.426,161.515 
		1229.518,121.73 	"/>
	<polygon style="" points="1229.518,42.161 1160.609,81.946 
		1229.518,121.73 	"/>
	<polygon style="" points="1229.518,121.73 1160.609,161.515 
		1229.518,201.301 	"/>
</g>
<polygon style="" points="1504.685,440.189 1435.776,400.405 
	1435.776,479.975 "/>
<g>
	<polygon style="" points="1573.593,479.975 1504.685,440.189 
		1504.685,519.759 	"/>
	<polygon style="" points="1573.593,559.544 1573.593,479.975 
		1504.685,519.759 	"/>
</g>
<polygon style="" points="1366.866,440.189 1366.866,519.759 
	1435.776,479.975 "/>
<polygon style="" points="1435.776,400.405 1366.866,440.189 
	1435.776,479.975 "/>
<g>
	<polygon style="" points="1297.956,479.975 1297.956,559.544 
		1366.866,519.759 	"/>
	<polygon style="" points="1366.866,440.189 1297.956,479.975 
		1366.866,519.759 	"/>
</g>
<polygon style="" points="1435.776,559.544 1366.866,519.759 
	1366.866,599.329 "/>
<polygon style="" points="1297.956,559.544 1297.956,639.113 
	1366.866,599.329 "/>
<polygon style="" points="1366.866,519.759 1297.956,559.544 
	1366.866,599.329 "/>
<polygon style="" points="1366.866,599.329 1297.956,639.113 
	1366.866,678.899 "/>
<polygon style="" points="1435.776,718.684 1504.685,678.899 
	1435.776,639.113 "/>
<polygon style="" points="1435.776,639.113 1366.866,678.899 
	1435.776,718.684 "/>
<g>
	<polygon style="" points="1573.593,559.544 1504.685,519.76 
		1504.685,599.329 	"/>
	<polygon style="" points="1573.593,639.113 1573.593,559.544 
		1504.685,599.329 	"/>
	<polygon style="" points="1504.685,678.899 1573.593,639.113 
		1504.685,599.329 	"/>
	<polygon style="" points="1504.685,519.76 1435.776,559.544 
		1504.685,599.329 	"/>
	<polygon style="" points="1504.685,599.329 1435.776,639.113 
		1504.685,678.899 	"/>
</g>
<polygon style="" points="1643.079,201.426 1574.17,161.642 
	1574.17,241.212 "/>
<g>
	<polygon style="" points="1711.987,241.212 1643.079,201.426 
		1643.079,280.996 	"/>
	<polygon style="" points="1711.987,320.781 1711.987,241.212 
		1643.079,280.996 	"/>
</g>
<polygon style="" points="1505.26,201.426 1505.26,280.996 
	1574.17,241.212 "/>
<polygon style="" points="1574.17,161.642 1505.26,201.426 
	1574.17,241.212 "/>
<g>
	<polygon style="" points="1436.35,241.212 1436.35,320.781 
		1505.26,280.996 	"/>
	<polygon style="" points="1505.26,201.426 1436.35,241.212 
		1505.26,280.996 	"/>
</g>
<polygon style="" points="1574.17,320.781 1505.26,280.996 
	1505.26,360.566 "/>
<polygon style="" points="1436.35,320.781 1436.35,400.35 
	1505.26,360.566 "/>
<polygon style="" points="1505.26,280.996 1436.35,320.781 
	1505.26,360.566 "/>
<polygon style="" points="1505.26,360.566 1436.35,400.35 
	1505.26,440.136 "/>
<polygon style="" points="1574.17,479.921 1643.079,440.136 
	1574.17,400.35 "/>
<polygon style="" points="1574.17,400.35 1505.26,440.136 
	1574.17,479.921 "/>
<g>
	<polygon style="" points="1711.987,320.781 1643.079,280.997 
		1643.079,360.566 	"/>
	<polygon style="" points="1711.987,400.35 1711.987,320.781 
		1643.079,360.566 	"/>
	<polygon style="" points="1643.079,440.136 1711.987,400.35 
		1643.079,360.566 	"/>
	<polygon style="" points="1643.079,280.997 1574.17,320.781 
		1643.079,360.566 	"/>
	<polygon style="" points="1643.079,360.566 1574.17,400.35 
		1643.079,440.136 	"/>
</g>
<polygon style="" points="1643.079,678.828 1574.17,639.043 
	1574.17,718.613 "/>
<g>
	<polygon style="" points="1711.987,718.613 1643.079,678.828 
		1643.079,758.397 	"/>
	<polygon style="" points="1711.987,798.183 1711.987,718.613 
		1643.079,758.397 	"/>
</g>
<polygon style="" points="1505.26,678.828 1505.26,758.397 
	1574.17,718.613 "/>
<polygon style="" points="1574.17,639.043 1505.26,678.828 
	1574.17,718.613 "/>
<g>
	<polygon style="" points="1436.35,718.613 1436.35,798.183 
		1505.26,758.397 	"/>
	<polygon style="" points="1505.26,678.828 1436.35,718.613 
		1505.26,758.397 	"/>
</g>
<polygon style="" points="1574.17,798.183 1505.26,758.397 
	1505.26,837.967 "/>
<polygon style="" points="1436.35,798.183 1436.35,877.752 
	1505.26,837.967 "/>
<polygon style="" points="1505.26,758.397 1436.35,798.183 
	1505.26,837.967 "/>
<polygon style="" points="1505.26,837.967 1436.35,877.752 
	1505.26,917.538 "/>
<polygon style="" points="1574.17,957.322 1643.079,917.538 
	1574.17,877.752 "/>
<polygon style="" points="1574.17,877.752 1505.26,917.538 
	1574.17,957.322 "/>
<g>
	<polygon style="" points="1711.987,798.183 1643.079,758.398 
		1643.079,837.967 	"/>
	<polygon style="" points="1711.987,877.752 1711.987,798.183 
		1643.079,837.967 	"/>
	<polygon style="" points="1643.079,917.538 1711.987,877.752 
		1643.079,837.967 	"/>
	<polygon style="" points="1643.079,758.398 1574.17,798.183 
		1643.079,837.967 	"/>
	<polygon style="" points="1643.079,837.967 1574.17,877.752 
		1643.079,917.538 	"/>
</g>
<g>
	<polygon style="" points="1366.645,678.769 1297.736,638.984 
		1297.736,718.554 	"/>
	<g>
		<polygon style="" points="1435.553,718.554 1366.645,678.769 
			1366.645,758.339 		"/>
		<polygon style="" points="1435.553,798.124 1435.553,718.554 
			1366.645,758.339 		"/>
	</g>
	<polygon style="" points="1228.826,678.769 1228.826,758.339 
		1297.736,718.554 	"/>
	<polygon style="" points="1297.736,638.984 1228.826,678.769 
		1297.736,718.554 	"/>
	<g>
		<polygon style="" points="1159.916,718.554 1159.916,798.124 
			1228.826,758.339 		"/>
		<polygon style="" points="1228.826,678.769 1159.916,718.554 
			1228.826,758.339 		"/>
	</g>
	<polygon style="" points="1297.736,798.124 1228.826,758.339 
		1228.826,837.908 	"/>
	<polygon style="" points="1159.916,798.124 1159.916,877.693 
		1228.826,837.908 	"/>
	<polygon style="" points="1228.826,758.339 1159.916,798.124 
		1228.826,837.908 	"/>
	<polygon style="" points="1228.826,837.908 1159.916,877.693 
		1228.826,917.479 	"/>
	<polygon style="" points="1297.736,957.263 1366.645,917.479 
		1297.736,877.693 	"/>
	<polygon style="" points="1297.736,877.693 1228.826,917.479 
		1297.736,957.263 	"/>
	<g>
		<polygon style="" points="1435.553,798.124 1366.645,758.339 
			1366.645,837.908 		"/>
		<polygon style="" points="1435.553,877.693 1435.553,798.124 
			1366.645,837.908 		"/>
		<polygon style="" points="1366.645,917.479 1435.553,877.693 
			1366.645,837.908 		"/>
		<polygon style="" points="1366.645,758.339 1297.736,798.124 
			1366.645,837.908 		"/>
		<polygon style="" points="1366.645,837.908 1297.736,877.693 
			1366.645,917.479 		"/>
	</g>
</g>
<g>
	<polygon style="" points="1229.18,440.189 1160.271,400.405 
		1160.271,479.975 	"/>
	<g>
		<polygon style="" points="1298.088,479.975 1229.18,440.189 
			1229.18,519.759 		"/>
		<polygon style="" points="1298.088,559.544 1298.088,479.975 
			1229.18,519.759 		"/>
	</g>
	<polygon style="" points="1091.361,440.189 1091.361,519.759 
		1160.271,479.975 	"/>
	<polygon style="" points="1160.271,400.405 1091.361,440.189 
		1160.271,479.975 	"/>
	<g>
		<polygon style="" points="1022.451,479.975 1022.451,559.544 
			1091.361,519.759 		"/>
		<polygon style="" points="1091.361,440.189 1022.451,479.975 
			1091.361,519.759 		"/>
	</g>
	<polygon style="" points="1160.271,559.544 1091.361,519.759 
		1091.361,599.329 	"/>
	<polygon style="" points="1022.451,559.544 1022.451,639.113 
		1091.361,599.329 	"/>
	<polygon style="" points="1091.361,519.759 1022.451,559.544 
		1091.361,599.329 	"/>
	<polygon style="" points="1091.361,599.329 1022.451,639.113 
		1091.361,678.899 	"/>
	<polygon style="" points="1160.271,718.684 1229.18,678.899 
		1160.271,639.113 	"/>
	<polygon style="" points="1160.271,639.113 1091.361,678.899 
		1160.271,718.684 	"/>
	<g>
		<polygon style="" points="1298.088,559.544 1229.18,519.76 
			1229.18,599.329 		"/>
		<polygon style="" points="1298.088,639.113 1298.088,559.544 
			1229.18,599.329 		"/>
		<polygon style="" points="1229.18,678.899 1298.088,639.113 
			1229.18,599.329 		"/>
		<polygon style="" points="1229.18,519.76 1160.271,559.544 
			1229.18,599.329 		"/>
		<polygon style="" points="1229.18,599.329 1160.271,639.113 
			1229.18,678.899 		"/>
	</g>
</g>
<g>
	<polygon style="" points="1091.425,201.426 1022.516,161.642 
		1022.516,241.212 	"/>
	<g>
		<polygon style="" points="1160.333,241.212 1091.425,201.426 
			1091.425,280.996 		"/>
		<polygon style="" points="1160.333,320.781 1160.333,241.212 
			1091.425,280.996 		"/>
	</g>
	<polygon style="" points="953.606,201.426 953.606,280.996 
		1022.516,241.212 	"/>
	<polygon style="" points="1022.516,161.642 953.606,201.426 
		1022.516,241.212 	"/>
	<g>
		<polygon style="" points="884.696,241.212 884.696,320.781 
			953.606,280.996 		"/>
		<polygon style="" points="953.606,201.426 884.696,241.212 
			953.606,280.996 		"/>
	</g>
	<polygon style="" points="1022.516,320.781 953.606,280.996 
		953.606,360.566 	"/>
	<polygon style="" points="884.696,320.781 884.696,400.35 
		953.606,360.566 	"/>
	<polygon style="" points="953.606,280.996 884.696,320.781 
		953.606,360.566 	"/>
	<polygon style="" points="953.606,360.566 884.696,400.35 
		953.606,440.136 	"/>
	<polygon style="" points="1022.516,479.921 1091.425,440.136 
		1022.516,400.35 	"/>
	<polygon style="" points="1022.516,400.35 953.606,440.136 
		1022.516,479.921 	"/>
	<g>
		<polygon style="" points="1160.333,320.781 1091.425,280.997 
			1091.425,360.566 		"/>
		<polygon style="" points="1160.333,400.35 1160.333,320.781 
			1091.425,360.566 		"/>
		<polygon style="" points="1091.425,440.136 1160.333,400.35 
			1091.425,360.566 		"/>
		<polygon style="" points="1091.425,280.997 1022.516,320.781 
			1091.425,360.566 		"/>
		<polygon style="" points="1091.425,360.566 1022.516,400.35 
			1091.425,440.136 		"/>
	</g>
</g>
<g>
	<polygon style="" points="1505.17,917.506 1436.261,877.722 
		1436.261,957.291 	"/>
	<g>
		<polygon style="" points="1574.078,957.291 1505.17,917.506 
			1505.17,997.076 		"/>
		<polygon style="" points="1574.078,1036.861 1574.078,957.291 
			1505.17,997.076 		"/>
	</g>
	<polygon style="" points="1367.351,917.506 1367.351,997.076 
		1436.261,957.291 	"/>
	<polygon style="" points="1436.261,877.722 1367.351,917.506 
		1436.261,957.291 	"/>
	<g>
		<polygon style="" points="1298.441,957.291 1298.441,1036.861 
			1367.351,997.076 		"/>
		<polygon style="" points="1367.351,917.506 1298.441,957.291 
			1367.351,997.076 		"/>
	</g>
	<polygon style="" points="1436.261,1036.861 1367.351,997.076 
		1367.351,1076.646 	"/>
	<polygon style="" points="1298.441,1036.861 1298.441,1116.43 
		1367.351,1076.646 	"/>
	<polygon style="" points="1367.351,997.076 1298.441,1036.861 
		1367.351,1076.646 	"/>
	<polygon style="" points="1367.351,1076.646 1298.441,1116.43 
		1367.351,1156.216 	"/>
	<polygon style="" points="1436.261,1196 1505.17,1156.216 
		1436.261,1116.43 	"/>
	<polygon style="" points="1436.261,1116.43 1367.351,1156.216 
		1436.261,1196 	"/>
	<g>
		<polygon style="" points="1574.078,1036.861 1505.17,997.077 
			1505.17,1076.646 		"/>
		<polygon style="" points="1574.078,1116.43 1574.078,1036.861 
			1505.17,1076.646 		"/>
		<polygon style="" points="1505.17,1156.216 1574.078,1116.43 
			1505.17,1076.646 		"/>
		<polygon style="" points="1505.17,997.077 1436.261,1036.861 
			1505.17,1076.646 		"/>
		<polygon style="" points="1505.17,1076.646 1436.261,1116.43 
			1505.17,1156.216 		"/>
	</g>
</g>
<g>
	<polygon style="" points="954.008,-37.409 885.1,-77.193 
		885.1,2.376 	"/>
	<g>
		<polygon style="" points="1022.916,2.376 954.008,-37.409 
			954.008,42.161 		"/>
		<polygon style="" points="1022.916,81.946 1022.916,2.376 
			954.008,42.161 		"/>
	</g>
	<polygon style="" points="816.19,-37.409 816.19,42.161 
		885.1,2.376 	"/>
	<polygon style="" points="885.1,-77.193 816.19,-37.409 
		885.1,2.376 	"/>
	<g>
		<polygon style="" points="747.28,2.376 747.28,81.946 
			816.19,42.161 		"/>
		<polygon style="" points="816.19,-37.409 747.28,2.376 
			816.19,42.161 		"/>
	</g>
	<polygon style="" points="885.1,81.946 816.19,42.161 
		816.19,121.73 	"/>
	<polygon style="" points="747.28,81.946 747.28,161.515 
		816.19,121.73 	"/>
	<polygon style="" points="816.19,42.161 747.28,81.946 
		816.19,121.73 	"/>
	<polygon style="" points="816.19,121.73 747.28,161.515 
		816.19,201.301 	"/>
	<polygon style="" points="885.1,241.085 954.008,201.301 
		885.1,161.515 	"/>
	<polygon style="" points="885.1,161.515 816.19,201.301 
		885.1,241.085 	"/>
	<g>
		<polygon style="" points="1022.916,81.946 954.008,42.161 
			954.008,121.73 		"/>
		<polygon style="" points="1022.916,161.515 1022.916,81.946 
			954.008,121.73 		"/>
		<polygon style="" points="954.008,201.301 1022.916,161.515 
			954.008,121.73 		"/>
		<polygon style="" points="954.008,42.161 885.1,81.946 
			954.008,121.73 		"/>
		<polygon style="" points="954.008,121.73 885.1,161.515 
			954.008,201.301 		"/>
	</g>
</g>
<g>
	<polygon style="" points="1090.968,678.769 1022.059,638.984 
		1022.059,718.554 	"/>
	<g>
		<polygon style="" points="1159.876,718.554 1090.968,678.769 
			1090.968,758.339 		"/>
		<polygon style="" points="1159.876,798.124 1159.876,718.554 
			1090.968,758.339 		"/>
	</g>
	<polygon style="" points="953.149,678.769 953.149,758.339 
		1022.059,718.554 	"/>
	<polygon style="" points="1022.059,638.984 953.149,678.769 
		1022.059,718.554 	"/>
	<g>
		<polygon style="" points="884.239,718.554 884.239,798.124 
			953.149,758.339 		"/>
		<polygon style="" points="953.149,678.769 884.239,718.554 
			953.149,758.339 		"/>
	</g>
	<polygon style="" points="1022.059,798.124 953.149,758.339 
		953.149,837.908 	"/>
	<polygon style="" points="884.239,798.124 884.239,877.693 
		953.149,837.908 	"/>
	<polygon style="" points="953.149,758.339 884.239,798.124 
		953.149,837.908 	"/>
	<polygon style="" points="953.149,837.908 884.239,877.693 
		953.149,917.479 	"/>
	<polygon style="" points="1022.059,957.263 1090.968,917.479 
		1022.059,877.693 	"/>
	<polygon style="" points="1022.059,877.693 953.149,917.479 
		1022.059,957.263 	"/>
	<g>
		<polygon style="" points="1159.876,798.124 1090.968,758.339 
			1090.968,837.908 		"/>
		<polygon style="" points="1159.876,877.693 1159.876,798.124 
			1090.968,837.908 		"/>
		<polygon style="" points="1090.968,917.479 1159.876,877.693 
			1090.968,837.908 		"/>
		<polygon style="" points="1090.968,758.339 1022.059,798.124 
			1090.968,837.908 		"/>
		<polygon style="" points="1090.968,837.908 1022.059,877.693 
			1090.968,917.479 		"/>
	</g>
</g>
<g>
	<polygon style="" points="953.502,440.189 884.593,400.405 
		884.593,479.975 	"/>
	<g>
		<polygon style="" points="1022.41,479.975 953.502,440.189 
			953.502,519.759 		"/>
		<polygon style="" points="1022.41,559.544 1022.41,479.975 
			953.502,519.759 		"/>
	</g>
	<polygon style="" points="815.683,440.189 815.683,519.759 
		884.593,479.975 	"/>
	<polygon style="" points="884.593,400.405 815.683,440.189 
		884.593,479.975 	"/>
	<g>
		<polygon style="" points="746.773,479.975 746.773,559.544 
			815.683,519.759 		"/>
		<polygon style="" points="815.683,440.189 746.773,479.975 
			815.683,519.759 		"/>
	</g>
	<polygon style="" points="884.593,559.544 815.683,519.759 
		815.683,599.329 	"/>
	<polygon style="" points="746.773,559.544 746.773,639.113 
		815.683,599.329 	"/>
	<polygon style="" points="815.683,519.759 746.773,559.544 
		815.683,599.329 	"/>
	<polygon style="" points="815.683,599.329 746.773,639.113 
		815.683,678.899 	"/>
	<polygon style="" points="884.593,718.684 953.502,678.899 
		884.593,639.113 	"/>
	<polygon style="" points="884.593,639.113 815.683,678.899 
		884.593,718.684 	"/>
	<g>
		<polygon style="" points="1022.41,559.544 953.502,519.76 
			953.502,599.329 		"/>
		<polygon style="" points="1022.41,639.113 1022.41,559.544 
			953.502,599.329 		"/>
		<polygon style="" points="953.502,678.899 1022.41,639.113 
			953.502,599.329 		"/>
		<polygon style="" points="953.502,519.76 884.593,559.544 
			953.502,599.329 		"/>
		<polygon style="" points="953.502,599.329 884.593,639.113 
			953.502,678.899 		"/>
	</g>
</g>
<g>
	<polygon style="" points="815.747,201.426 746.839,161.642 
		746.839,241.212 	"/>
	<g>
		<polygon style="" points="884.655,241.212 815.747,201.426 
			815.747,280.996 		"/>
		<polygon style="" points="884.655,320.781 884.655,241.212 
			815.747,280.996 		"/>
	</g>
	<polygon style="" points="677.929,201.426 677.929,280.996 
		746.839,241.212 	"/>
	<polygon style="" points="746.839,161.642 677.929,201.426 
		746.839,241.212 	"/>
	<g>
		<polygon style="" points="609.019,241.212 609.019,320.781 
			677.929,280.996 		"/>
		<polygon style="" points="677.929,201.426 609.019,241.212 
			677.929,280.996 		"/>
	</g>
	<polygon style="" points="746.839,320.781 677.929,280.996 
		677.929,360.566 	"/>
	<polygon style="" points="609.019,320.781 609.019,400.35 
		677.929,360.566 	"/>
	<polygon style="" points="677.929,280.996 609.019,320.781 
		677.929,360.566 	"/>
	<polygon style="" points="677.929,360.566 609.019,400.35 
		677.929,440.136 	"/>
	<polygon style="" points="746.839,479.921 815.747,440.136 
		746.839,400.35 	"/>
	<polygon style="" points="746.839,400.35 677.929,440.136 
		746.839,479.921 	"/>
	<g>
		<polygon style="" points="884.655,320.781 815.747,280.997 
			815.747,360.566 		"/>
		<polygon style="" points="884.655,400.35 884.655,320.781 
			815.747,360.566 		"/>
		<polygon style="" points="815.747,440.136 884.655,400.35 
			815.747,360.566 		"/>
		<polygon style="" points="815.747,280.997 746.839,320.781 
			815.747,360.566 		"/>
		<polygon style="" points="815.747,360.566 746.839,400.35 
			815.747,440.136 		"/>
	</g>
</g>
<g>
	<polygon style="" points="1229.493,917.506 1160.584,877.722 
		1160.584,957.291 	"/>
	<g>
		<polygon style="" points="1298.401,957.291 1229.493,917.506 
			1229.493,997.076 		"/>
		<polygon style="" points="1298.401,1036.861 1298.401,957.291 
			1229.493,997.076 		"/>
	</g>
	<polygon style="" points="1091.674,917.506 1091.674,997.076 
		1160.584,957.291 	"/>
	<polygon style="" points="1160.584,877.722 1091.674,917.506 
		1160.584,957.291 	"/>
	<g>
		<polygon style="" points="1022.764,957.291 1022.764,1036.861 
			1091.674,997.076 		"/>
		<polygon style="" points="1091.674,917.506 1022.764,957.291 
			1091.674,997.076 		"/>
	</g>
	<polygon style="" points="1160.584,1036.861 1091.674,997.076 
		1091.674,1076.646 	"/>
	<polygon style="" points="1022.764,1036.861 1022.764,1116.43 
		1091.674,1076.646 	"/>
	<polygon style="" points="1091.674,997.076 1022.764,1036.861 
		1091.674,1076.646 	"/>
	<polygon style="" points="1091.674,1076.646 1022.764,1116.43 
		1091.674,1156.216 	"/>
	<polygon style="" points="1160.584,1196 1229.493,1156.216 
		1160.584,1116.43 	"/>
	<polygon style="" points="1160.584,1116.43 1091.674,1156.216 
		1160.584,1196 	"/>
	<g>
		<polygon style="" points="1298.401,1036.861 1229.493,997.077 
			1229.493,1076.646 		"/>
		<polygon style="" points="1298.401,1116.43 1298.401,1036.861 
			1229.493,1076.646 		"/>
		<polygon style="" points="1229.493,1156.216 1298.401,1116.43 
			1229.493,1076.646 		"/>
		<polygon style="" points="1229.493,997.077 1160.584,1036.861 
			1229.493,1076.646 		"/>
		<polygon style="" points="1229.493,1076.646 1160.584,1116.43 
			1229.493,1156.216 		"/>
	</g>
</g>
<g>
</g>
<g>
</g>
<g>
</g>
<g>
</g>
<g>
</g>
<g>
</g>
</svg>
