<?xml version="1.0" encoding="utf-8"?>
<!-- Generator: Adobe Illustrator 22.0.1, SVG Export Plug-In . SVG Version: 6.00 Build 0)  -->
<svg version="1.1" id="Layer_1" xmlns="http://www.w3.org/2000/svg" xmlns:xlink="http://www.w3.org/1999/xlink" x="0px" y="0px"
	 viewBox="0 0 1440 1200" style="enable-background:new 0 0 1440 1200;" xml:space="preserve">
<style type="text/css">
	.st0{fill:none;stroke:#000000;stroke-miterlimit:10;}
</style>
<g>
	<polygon class="st0" points="164.6,277.6 82.7,230.3 82.7,324.9 	"/>
	<polygon class="st0" points="246.6,324.9 164.6,277.6 164.6,372.2 	"/>
	<polygon class="st0" points="246.6,419.5 246.6,324.9 164.6,372.2 	"/>
	<polygon class="st0" points="0.9,277.6 0.9,372.2 82.7,324.9 	"/>
	<polygon class="st0" points="82.7,230.3 0.9,277.6 82.7,324.9 	"/>
	<polygon class="st0" points="-81,324.9 -81,419.5 0.9,372.2 	"/>
	<polygon class="st0" points="0.9,277.6 -81,324.9 0.9,372.2 	"/>
	<polygon class="st0" points="82.7,419.5 0.9,372.2 0.9,466.8 	"/>
	<polygon class="st0" points="-81,419.5 -81,514.1 0.9,466.8 	"/>
	<polygon class="st0" points="0.9,372.2 -81,419.5 0.9,466.8 	"/>
	<polygon class="st0" points="0.9,466.8 -81,514.1 0.9,561.2 	"/>
	<polygon class="st0" points="82.7,608.5 164.6,561.2 82.7,514.1 	"/>
	<polygon class="st0" points="82.7,514.1 0.9,561.2 82.7,608.5 	"/>
	<polygon class="st0" points="246.6,419.5 164.6,372.2 164.6,466.8 	"/>
	<polygon class="st0" points="246.6,514.1 246.6,419.5 164.6,466.8 	"/>
	<polygon class="st0" points="164.6,561.2 246.6,514.1 164.6,466.8 	"/>
	<polygon class="st0" points="164.6,372.2 82.7,419.5 164.6,466.8 	"/>
	<polygon class="st0" points="164.6,466.8 82.7,514.1 164.6,561.2 	"/>
</g>
<g>
	<polygon class="st0" points="492,278.1 410.2,230.8 410.2,325.4 	"/>
	<polygon class="st0" points="574,325.4 492,278.1 492,372.7 	"/>
	<polygon class="st0" points="574,420 574,325.4 492,372.7 	"/>
	<polygon class="st0" points="328.3,278.1 328.3,372.7 410.2,325.4 	"/>
	<polygon class="st0" points="410.2,230.8 328.3,278.1 410.2,325.4 	"/>
	<polygon class="st0" points="246.4,325.4 246.4,420 328.3,372.7 	"/>
	<polygon class="st0" points="328.3,278.1 246.4,325.4 328.3,372.7 	"/>
	<polygon class="st0" points="410.2,420 328.3,372.7 328.3,467.3 	"/>
	<polygon class="st0" points="246.4,420 246.4,514.5 328.3,467.3 	"/>
	<polygon class="st0" points="328.3,372.7 246.4,420 328.3,467.3 	"/>
	<polygon class="st0" points="328.3,467.3 246.4,514.5 328.3,561.7 	"/>
	<polygon class="st0" points="410.2,609 492,561.7 410.2,514.5 	"/>
	<polygon class="st0" points="410.2,514.5 328.3,561.7 410.2,609 	"/>
	<polygon class="st0" points="574,420 492,372.7 492,467.3 	"/>
	<polygon class="st0" points="574,514.5 574,420 492,467.3 	"/>
	<polygon class="st0" points="492,561.7 574,514.5 492,467.3 	"/>
	<polygon class="st0" points="492,372.7 410.2,420 492,467.3 	"/>
	<polygon class="st0" points="492,467.3 410.2,514.5 492,561.7 	"/>
</g>
<g>
	<polygon class="st0" points="1,-6.1 -80.9,-53.4 -80.9,41.2 	"/>
	<polygon class="st0" points="83,41.2 1,-6.1 1,88.5 	"/>
	<polygon class="st0" points="83,135.7 83,41.2 1,88.5 	"/>
	<polygon class="st0" points="-162.7,-6.1 -162.7,88.5 -80.9,41.2 	"/>
	<polygon class="st0" points="-80.9,-53.4 -162.7,-6.1 -80.9,41.2 	"/>
	<polygon class="st0" points="-244.6,41.2 -244.6,135.7 -162.7,88.5 	"/>
	<polygon class="st0" points="-162.7,-6.1 -244.6,41.2 -162.7,88.5 	"/>
	<polygon class="st0" points="-80.9,135.7 -162.7,88.5 -162.7,183 	"/>
	<polygon class="st0" points="-244.6,135.7 -244.6,230.3 -162.7,183 	"/>
	<polygon class="st0" points="-162.7,88.5 -244.6,135.7 -162.7,183 	"/>
	<polygon class="st0" points="-162.7,183 -244.6,230.3 -162.7,277.5 	"/>
	<polygon class="st0" points="-80.9,324.8 1,277.5 -80.9,230.3 	"/>
	<polygon class="st0" points="-80.9,230.3 -162.7,277.5 -80.9,324.8 	"/>
	<polygon class="st0" points="83,135.7 1,88.5 1,183 	"/>
	<polygon class="st0" points="83,230.3 83,135.7 1,183 	"/>
	<polygon class="st0" points="1,277.5 83,230.3 1,183 	"/>
	<polygon class="st0" points="1,88.5 -80.9,135.7 1,183 	"/>
	<polygon class="st0" points="1,183 -80.9,230.3 1,277.5 	"/>
</g>
<g>
	<polygon class="st0" points="1511.9,320.8 1439.7,279.1 1439.7,362.5 	"/>
	<polygon class="st0" points="1584.3,362.5 1511.9,320.8 1511.9,404.3 	"/>
	<polygon class="st0" points="1584.3,446 1584.3,362.5 1511.9,404.3 	"/>
	<polygon class="st0" points="1367.4,320.8 1367.4,404.3 1439.7,362.5 	"/>
	<polygon class="st0" points="1439.7,279.1 1367.4,320.8 1439.7,362.5 	"/>
	<polygon class="st0" points="1295.1,362.5 1295.1,446 1367.4,404.3 	"/>
	<polygon class="st0" points="1367.4,320.8 1295.1,362.5 1367.4,404.3 	"/>
	<polygon class="st0" points="1439.7,446 1367.4,404.3 1367.4,487.8 	"/>
	<polygon class="st0" points="1295.1,446 1295.1,529.5 1367.4,487.8 	"/>
	<polygon class="st0" points="1367.4,404.3 1295.1,446 1367.4,487.8 	"/>
	<polygon class="st0" points="1367.4,487.8 1295.1,529.5 1367.4,571.2 	"/>
	<polygon class="st0" points="1439.7,612.9 1511.9,571.2 1439.7,529.5 	"/>
	<polygon class="st0" points="1439.7,529.5 1367.4,571.2 1439.7,612.9 	"/>
	<polygon class="st0" points="1584.3,446 1511.9,404.3 1511.9,487.8 	"/>
	<polygon class="st0" points="1584.3,529.5 1584.3,446 1511.9,487.8 	"/>
	<polygon class="st0" points="1511.9,571.2 1584.3,529.5 1511.9,487.8 	"/>
	<polygon class="st0" points="1511.9,404.3 1439.7,446 1511.9,487.8 	"/>
	<polygon class="st0" points="1511.9,487.8 1439.7,529.5 1511.9,571.2 	"/>
</g>
<g>
	<polygon class="st0" points="1367.8,571.3 1295.6,529.5 1295.6,613 	"/>
	<polygon class="st0" points="1440.2,613 1367.8,571.3 1367.8,654.8 	"/>
	<polygon class="st0" points="1440.2,696.5 1440.2,613 1367.8,654.8 	"/>
	<polygon class="st0" points="1223.3,571.3 1223.3,654.8 1295.6,613 	"/>
	<polygon class="st0" points="1295.6,529.5 1223.3,571.3 1295.6,613 	"/>
	<polygon class="st0" points="1151,613 1151,696.5 1223.3,654.8 	"/>
	<polygon class="st0" points="1223.3,571.3 1151,613 1223.3,654.8 	"/>
	<polygon class="st0" points="1295.6,696.5 1223.3,654.8 1223.3,738.2 	"/>
	<polygon class="st0" points="1151,696.5 1151,780 1223.3,738.2 	"/>
	<polygon class="st0" points="1223.3,654.8 1151,696.5 1223.3,738.2 	"/>
	<polygon class="st0" points="1223.3,738.2 1151,780 1223.3,821.6 	"/>
	<polygon class="st0" points="1295.6,863.4 1367.8,821.6 1295.6,780 	"/>
	<polygon class="st0" points="1295.6,780 1223.3,821.6 1295.6,863.4 	"/>
	<polygon class="st0" points="1440.2,696.5 1367.8,654.8 1367.8,738.2 	"/>
	<polygon class="st0" points="1440.2,780 1440.2,696.5 1367.8,738.2 	"/>
	<polygon class="st0" points="1367.8,821.6 1440.2,780 1367.8,738.2 	"/>
	<polygon class="st0" points="1367.8,654.8 1295.6,696.5 1367.8,738.2 	"/>
	<polygon class="st0" points="1367.8,738.2 1295.6,780 1367.8,821.6 	"/>
</g>
<g>
	<polygon class="st0" points="1222.8,320.7 1150.5,279 1150.5,362.5 	"/>
	<polygon class="st0" points="1295.2,362.5 1222.8,320.7 1222.8,404.2 	"/>
	<polygon class="st0" points="1295.2,446 1295.2,362.5 1222.8,404.2 	"/>
	<polygon class="st0" points="1078.3,320.7 1078.3,404.2 1150.5,362.5 	"/>
	<polygon class="st0" points="1150.5,279 1078.3,320.7 1150.5,362.5 	"/>
	<polygon class="st0" points="1006,362.5 1006,446 1078.3,404.2 	"/>
	<polygon class="st0" points="1078.3,320.7 1006,362.5 1078.3,404.2 	"/>
	<polygon class="st0" points="1150.5,446 1078.3,404.2 1078.3,487.7 	"/>
	<polygon class="st0" points="1006,446 1006,529.5 1078.3,487.7 	"/>
	<polygon class="st0" points="1078.3,404.2 1006,446 1078.3,487.7 	"/>
	<polygon class="st0" points="1078.3,487.7 1006,529.5 1078.3,571.1 	"/>
	<polygon class="st0" points="1150.5,612.8 1222.8,571.1 1150.5,529.5 	"/>
	<polygon class="st0" points="1150.5,529.5 1078.3,571.1 1150.5,612.8 	"/>
	<polygon class="st0" points="1295.2,446 1222.8,404.2 1222.8,487.7 	"/>
	<polygon class="st0" points="1295.2,529.5 1295.2,446 1222.8,487.7 	"/>
	<polygon class="st0" points="1222.8,571.1 1295.2,529.5 1222.8,487.7 	"/>
	<polygon class="st0" points="1222.8,404.2 1150.5,446 1222.8,487.7 	"/>
	<polygon class="st0" points="1222.8,487.7 1150.5,529.5 1222.8,571.1 	"/>
</g>
<g>
	<polygon class="st0" points="1367.4,70.3 1295.2,28.6 1295.2,112 	"/>
	<polygon class="st0" points="1439.8,112 1367.4,70.3 1367.4,153.8 	"/>
	<polygon class="st0" points="1439.8,195.5 1439.8,112 1367.4,153.8 	"/>
	<polygon class="st0" points="1222.9,70.3 1222.9,153.8 1295.2,112 	"/>
	<polygon class="st0" points="1295.2,28.6 1222.9,70.3 1295.2,112 	"/>
	<polygon class="st0" points="1150.6,112 1150.6,195.5 1222.9,153.8 	"/>
	<polygon class="st0" points="1222.9,70.3 1150.6,112 1222.9,153.8 	"/>
	<polygon class="st0" points="1295.2,195.5 1222.9,153.8 1222.9,237.3 	"/>
	<polygon class="st0" points="1150.6,195.5 1150.6,279 1222.9,237.3 	"/>
	<polygon class="st0" points="1222.9,153.8 1150.6,195.5 1222.9,237.3 	"/>
	<polygon class="st0" points="1222.9,237.3 1150.6,279 1222.9,320.7 	"/>
	<polygon class="st0" points="1295.2,362.4 1367.4,320.7 1295.2,279 	"/>
	<polygon class="st0" points="1295.2,279 1222.9,320.7 1295.2,362.4 	"/>
	<polygon class="st0" points="1439.8,195.5 1367.4,153.8 1367.4,237.3 	"/>
	<polygon class="st0" points="1439.8,279 1439.8,195.5 1367.4,237.3 	"/>
	<polygon class="st0" points="1367.4,320.7 1439.8,279 1367.4,237.3 	"/>
	<polygon class="st0" points="1367.4,153.8 1295.2,195.5 1367.4,237.3 	"/>
	<polygon class="st0" points="1367.4,237.3 1295.2,279 1367.4,320.7 	"/>
</g>
<g>
	<polygon class="st0" points="1,561.4 -80.9,514.1 -80.9,608.7 	"/>
	<polygon class="st0" points="83,608.7 1,561.4 1,656 	"/>
	<polygon class="st0" points="83,703.2 83,608.7 1,656 	"/>
	<polygon class="st0" points="-162.7,561.4 -162.7,656 -80.9,608.7 	"/>
	<polygon class="st0" points="-80.9,514.1 -162.7,561.4 -80.9,608.7 	"/>
	<polygon class="st0" points="-244.6,608.7 -244.6,703.2 -162.7,656 	"/>
	<polygon class="st0" points="-162.7,561.4 -244.6,608.7 -162.7,656 	"/>
	<polygon class="st0" points="-80.9,703.2 -162.7,656 -162.7,750.5 	"/>
	<polygon class="st0" points="-244.6,703.2 -244.6,797.8 -162.7,750.5 	"/>
	<polygon class="st0" points="-162.7,656 -244.6,703.2 -162.7,750.5 	"/>
	<polygon class="st0" points="-162.7,750.5 -244.6,797.8 -162.7,845 	"/>
	<polygon class="st0" points="-80.9,892.3 1,845 -80.9,797.8 	"/>
	<polygon class="st0" points="-80.9,797.8 -162.7,845 -80.9,892.3 	"/>
	<polygon class="st0" points="83,703.2 1,656 1,750.5 	"/>
	<polygon class="st0" points="83,797.8 83,703.2 1,750.5 	"/>
	<polygon class="st0" points="1,845 83,797.8 1,750.5 	"/>
	<polygon class="st0" points="1,656 -80.9,703.2 1,750.5 	"/>
	<polygon class="st0" points="1,750.5 -80.9,797.8 1,845 	"/>
</g>
<g>
	<polygon class="st0" points="328.3,561.7 246.5,514.4 246.5,609 	"/>
	<polygon class="st0" points="410.3,609 328.3,561.7 328.3,656.3 	"/>
	<polygon class="st0" points="410.3,703.6 410.3,609 328.3,656.3 	"/>
	<polygon class="st0" points="164.6,561.7 164.6,656.3 246.5,609 	"/>
	<polygon class="st0" points="246.5,514.4 164.6,561.7 246.5,609 	"/>
	<polygon class="st0" points="82.7,609 82.7,703.6 164.6,656.3 	"/>
	<polygon class="st0" points="164.6,561.7 82.7,609 164.6,656.3 	"/>
	<polygon class="st0" points="246.5,703.6 164.6,656.3 164.6,750.9 	"/>
	<polygon class="st0" points="82.7,703.6 82.7,798.1 164.6,750.9 	"/>
	<polygon class="st0" points="164.6,656.3 82.7,703.6 164.6,750.9 	"/>
	<polygon class="st0" points="164.6,750.9 82.7,798.1 164.6,845.3 	"/>
	<polygon class="st0" points="246.5,892.6 328.3,845.3 246.5,798.1 	"/>
	<polygon class="st0" points="246.5,798.1 164.6,845.3 246.5,892.6 	"/>
	<polygon class="st0" points="410.3,703.6 328.3,656.3 328.3,750.9 	"/>
	<polygon class="st0" points="410.3,798.1 410.3,703.6 328.3,750.9 	"/>
	<polygon class="st0" points="328.3,845.3 410.3,798.1 328.3,750.9 	"/>
	<polygon class="st0" points="328.3,656.3 246.5,703.6 328.3,750.9 	"/>
	<polygon class="st0" points="328.3,750.9 246.5,798.1 328.3,845.3 	"/>
</g>
</svg>
